<svg xmlns="http://www.w3.org/2000/svg" width="54.616" height="48.144" viewBox="0 0 54.616 48.144">
  <path id="Caminho_364" data-name="Caminho 364" d="M1231.166,237.974a13.9,13.9,0,0,0-9.837-4.049h-.006a13.9,13.9,0,0,0-9.836,4.042l-2.856,2.775-3.143-3.145a14.584,14.584,0,0,0-20.625,20.626l.644.643-.91.91a4.962,4.962,0,0,0,0,6.962l.046.046a4.856,4.856,0,0,0,3.425,1.436l.5,0,0,.5a4.855,4.855,0,0,0,1.443,3.426l.049.049a4.913,4.913,0,0,0,3.464,1.441h.039l.5,0,.011.5a4.86,4.86,0,0,0,1.437,3.35l.048.049a4.963,4.963,0,0,0,6.962,0l1.082-1.082,3.6,3.607a4.851,4.851,0,0,0,8.281-3.358l.007-.488.488-.009a4.874,4.874,0,0,0,4.776-4.679l.019-.476.476-.009a4.609,4.609,0,0,0,3.819-7.051l-.219-.351,6.282-5.941a13.987,13.987,0,0,0,.031-19.715Zm-41.157,27.216a2.688,2.688,0,0,1-3.771,0l-.049-.05a2.689,2.689,0,0,1,0-3.772l3-3a2.677,2.677,0,0,1,3.775,0l.048.048a2.677,2.677,0,0,1,0,3.774Zm5.416,5.416a2.688,2.688,0,0,1-3.771,0l-.049-.05a2.688,2.688,0,0,1,0-3.773l4.9-4.9a2.688,2.688,0,0,1,3.774,0l.049.049a2.688,2.688,0,0,1,0,3.773Zm5.5,5.331a2.688,2.688,0,0,1-3.773,0l-.049-.049a2.689,2.689,0,0,1,0-3.773l1.944-1.944a2.688,2.688,0,0,1,3.773,0l.049.049a2.691,2.691,0,0,1,.572,2.912Zm21.921-7.842a2.353,2.353,0,0,1-3.317,0l-3.239-3.238a1.126,1.126,0,1,0-1.624,1.562l.025.025.006.006,3.066,3.067a2.6,2.6,0,0,1-3.677,3.684l-.014-.014-3.04-3.04a1.126,1.126,0,1,0-1.624,1.562l.026.026,3.055,3.055a2.6,2.6,0,0,1-3.678,3.683l-.014-.013-3.672-3.672.178-.331a4.918,4.918,0,0,0-.848-5.831l-.047-.047a4.872,4.872,0,0,0-1.743-1.125l-.614-.231.38-.534a4.936,4.936,0,0,0-.519-6.35l-.046-.046a4.934,4.934,0,0,0-5.359-1.072l-.517.211-.159-.535a4.906,4.906,0,0,0-1.234-2.071l-.048-.048a4.943,4.943,0,0,0-6.961,0l-.493.493-.643-.643a12.33,12.33,0,0,1,8.766-21h0a12.256,12.256,0,0,1,8.67,3.565l3.122,3.122-5.6,5.439a5.351,5.351,0,1,0,7.409,7.723l.093-.092,1.806-1.8a.652.652,0,0,1,.92,0l11.2,11.2a2.363,2.363,0,0,1,.544,2.456Zm7.654-12.905-.921.872-6.3,5.96-10.038-10.037a2.928,2.928,0,0,0-4.108,0l-1.8,1.8a3.078,3.078,0,0,1-2.19.909h0a3.1,3.1,0,0,1-2.192-5.288l.043-.042,10.085-9.8c5.853-5.409,12.627-3.78,16.444.023a11.379,11.379,0,0,1,.811,15.6Z" transform="translate(-1180.599 -233.326)" fill="#e0579e"/>
</svg>
