<svg xmlns="http://www.w3.org/2000/svg" width="72.047" height="72.299" viewBox="0 0 72.047 72.299">
  <g id="support" transform="translate(-0.894)">
    <path id="Caminho_378" data-name="Caminho 378" d="M246.458,9.187a1.422,1.422,0,0,0,1.422-1.422V1.422a1.422,1.422,0,1,0-2.844,0V7.765A1.422,1.422,0,0,0,246.458,9.187Z" transform="translate(-209.667)" fill="#abd9d6"/>
    <path id="Caminho_379" data-name="Caminho 379" d="M71.553,119.409,69.041,116.9a4.762,4.762,0,0,0-5.635-.8l-4.734-4.729.231-.23a4.936,4.936,0,0,0,0-6.969,4.882,4.882,0,0,0-2.476-1.339,4.966,4.966,0,0,0,.2-1.384,4.925,4.925,0,0,0-3.918-4.823,4.966,4.966,0,0,0,.2-1.384,4.92,4.92,0,0,0-3.917-4.821,4.921,4.921,0,0,0-5.26-6.281l-9.381-1.776c-1.431-.271-3.217-.451-4.345.578a2.568,2.568,0,0,0-.215.223,4.945,4.945,0,0,0-5.189,1.141,4.893,4.893,0,0,0-1.441,3.486,4.972,4.972,0,0,0,.2,1.384,4.926,4.926,0,0,0-3.916,4.818,4.958,4.958,0,0,0,.2,1.388,4.931,4.931,0,0,0-3.057,7.61,4.928,4.928,0,0,0-1.893,8.153l.23.229L10.174,116.1a4.755,4.755,0,0,0-5.38.932l-2.514,2.507a4.751,4.751,0,0,0,0,6.709l3.137,3.133a1.422,1.422,0,0,0,2.01-2.012L4.29,124.234a1.907,1.907,0,0,1,0-2.683L6.8,119.044a1.9,1.9,0,0,1,2.319-.284,1.434,1.434,0,0,0,.179.219,1.415,1.415,0,0,0,.409.284l14.416,14.4a1.4,1.4,0,0,0,.686.693,1.9,1.9,0,0,1-.079,2.6l-2.511,2.508a1.91,1.91,0,0,1-2.689,0L16.4,136.32a1.422,1.422,0,0,0-2.011,2.011l3.139,3.14a4.761,4.761,0,0,0,6.706,0l2.513-2.51a4.755,4.755,0,0,0,.666-5.873l5.329-5.322.017-.017c.61-.631,2.309-.513,3.953-.4a20.454,20.454,0,0,0,3.741.025l5.835,5.828a4.753,4.753,0,0,0,.807,5.63l2.513,2.51a4.755,4.755,0,0,0,6.708,0l15.242-15.224a4.75,4.75,0,0,0,0-6.709ZM33.813,85.159l6.169,1.168L36.29,90.017a8.965,8.965,0,0,1-2.213-1.608,6.542,6.542,0,0,1-2.093-3.233h0a1.243,1.243,0,0,1-.006-.14A4.819,4.819,0,0,1,33.813,85.159ZM26.6,86.318a2.1,2.1,0,0,1,2.654-.251,10.172,10.172,0,0,0,2.854,4.4A10.532,10.532,0,0,0,36.208,93a2.087,2.087,0,0,1-3.19,2.666h0l-6.413-6.4a2.094,2.094,0,0,1,0-2.948Zm-3.716,6.206a2.1,2.1,0,0,1,2.955,0l5.164,5.154a2.09,2.09,0,0,1-2.958,2.953h0l-3.918-3.917-.019-.018-1.226-1.225a2.087,2.087,0,0,1,0-2.949Zm-3.723,6.2a2.1,2.1,0,0,1,2.945-.01l3.93,3.928a2.087,2.087,0,0,1-2.958,2.946l-1.425-1.423h0l-2.492-2.489a2.092,2.092,0,0,1,0-2.951Zm-2.477,7.454a2.1,2.1,0,0,1,2.959,0l1.427,1.425a2.087,2.087,0,0,1-2.959,2.945l-.179-.178-.006-.007-.008-.007-1.232-1.228a2.088,2.088,0,0,1,0-2.949Zm28.981,16.162a1.422,1.422,0,0,0-2.011,0l-1.265,1.264c-1.2,1.2-3.381,1.051-5.487.9-2.288-.159-4.653-.323-6.184,1.249l-5.238,5.232-13.1-13.08,4.636-4.627a4.932,4.932,0,0,0,7.507-4.206c0-.012,0-.024,0-.037h.037a4.919,4.919,0,0,0,4.93-4.924c0-.012,0-.024,0-.037h.037a4.914,4.914,0,0,0,4.93-4.962H34.5a4.933,4.933,0,0,0,4.209-7.5l4.063-4.061a2.086,2.086,0,0,1,1.067-.569c.042,0,.084-.011.126-.019a2.084,2.084,0,0,1,1.77,3.537l-1.237,1.232-.013.012-1.425,1.423a1.422,1.422,0,0,0,2.01,2.012l1.242-1.241h0l.188-.187a2.1,2.1,0,0,1,2.951.007,2.087,2.087,0,0,1,0,2.948L48.2,97.964h0l-1.425,1.419a1.422,1.422,0,1,0,2.007,2.015l1.432-1.426a2.087,2.087,0,0,1,2.954,2.95l-2.481,2.482a1.422,1.422,0,1,0,2.011,2.011l1.216-1.216.021-.019a2.087,2.087,0,0,1,2.955,2.949l-1.236,1.235h0l-1.962,1.96a1.422,1.422,0,0,0,2.01,2.013l.96-.959,4.6,4.595-13.1,13.082-4.693-4.687a5.592,5.592,0,0,0,.934-.752l1.265-1.263a1.422,1.422,0,0,0,0-2.011Zm23.875,1.761L54.3,139.329a1.911,1.911,0,0,1-2.688,0l-2.513-2.51a1.9,1.9,0,0,1,0-2.68l15.242-15.224a1.911,1.911,0,0,1,2.689,0l2.512,2.505a1.906,1.906,0,0,1,0,2.684Z" transform="translate(0 -70.553)" fill="#abd9d6"/>
    <path id="Caminho_380" data-name="Caminho 380" d="M87.323,10.345a1.422,1.422,0,0,0,2.009-2.013L84.15,3.16a1.422,1.422,0,0,0-2.009,2.013Z" transform="translate(-69.415 -2.357)" fill="#abd9d6"/>
    <path id="Caminho_381" data-name="Caminho 381" d="M373.073,10.761a1.418,1.418,0,0,0,1-.416l5.178-5.172a1.422,1.422,0,0,0-2.01-2.012l-5.178,5.172a1.422,1.422,0,0,0,1.005,2.428Z" transform="translate(-318.403 -2.358)" fill="#abd9d6"/>
    <path id="Caminho_382" data-name="Caminho 382" d="M60.338,430.618a1.422,1.422,0,0,0,.017,2.011l0,0a1.422,1.422,0,1,0-.021-2.015Z" transform="translate(-50.699 -369.446)" fill="#abd9d6"/>
    <path id="Caminho_383" data-name="Caminho 383" d="M333.935,334.963a1.422,1.422,0,1,0-.639-2.693l-.008,0a1.421,1.421,0,0,0,.647,2.689Z" transform="translate(-284.788 -285.22)" fill="#abd9d6"/>
  </g>
</svg>
