<svg id="network_1_" data-name="network (1)" xmlns="http://www.w3.org/2000/svg" width="82" height="82" viewBox="0 0 82 82">
  <g id="Grupo_109" data-name="Grupo 109" transform="translate(71.067 16.4)">
    <g id="Grupo_108" data-name="Grupo 108">
      <path id="Caminho_384" data-name="Caminho 384" d="M449.2,102.4a5.467,5.467,0,1,0,5.467,5.467A5.472,5.472,0,0,0,449.2,102.4Zm0,8.2a2.733,2.733,0,1,1,2.733-2.733A2.736,2.736,0,0,1,449.2,110.6Z" transform="translate(-443.734 -102.4)" fill="#abd9d6"/>
    </g>
  </g>
  <g id="Grupo_111" data-name="Grupo 111" transform="translate(0 61.5)">
    <g id="Grupo_110" data-name="Grupo 110">
      <path id="Caminho_385" data-name="Caminho 385" d="M5.467,384a5.467,5.467,0,1,0,5.467,5.467A5.472,5.472,0,0,0,5.467,384Zm0,8.2A2.733,2.733,0,1,1,8.2,389.467,2.736,2.736,0,0,1,5.467,392.2Z" transform="translate(0 -384)" fill="#abd9d6"/>
    </g>
  </g>
  <g id="Grupo_113" data-name="Grupo 113" transform="translate(60.133 12.299)">
    <g id="Grupo_112" data-name="Grupo 112">
      <path id="Caminho_386" data-name="Caminho 386" d="M389.213,82.62l-11.79-5.692a1.366,1.366,0,0,0-1.188,2.461l11.79,5.692a1.366,1.366,0,0,0,1.188-2.461Z" transform="translate(-375.463 -76.792)" fill="#abd9d6"/>
    </g>
  </g>
  <g id="Grupo_115" data-name="Grupo 115" transform="translate(56.033 71.067)">
    <g id="Grupo_114" data-name="Grupo 114">
      <path id="Caminho_387" data-name="Caminho 387" d="M355.334,443.733A5.467,5.467,0,1,0,360.8,449.2,5.472,5.472,0,0,0,355.334,443.733Zm0,8.2a2.733,2.733,0,1,1,2.733-2.733A2.736,2.736,0,0,1,355.334,451.933Z" transform="translate(-349.867 -443.733)" fill="#abd9d6"/>
    </g>
  </g>
  <g id="Grupo_117" data-name="Grupo 117" transform="translate(45.099 66.965)">
    <g id="Grupo_116" data-name="Grupo 116">
      <path id="Caminho_388" data-name="Caminho 388" d="M295.346,423.953l-11.79-5.692a1.366,1.366,0,0,0-1.188,2.461l11.79,5.692a1.366,1.366,0,1,0,1.188-2.461Z" transform="translate(-281.596 -418.124)" fill="#abd9d6"/>
    </g>
  </g>
  <g id="Grupo_119" data-name="Grupo 119" transform="translate(35.533 36.9)">
    <g id="Grupo_118" data-name="Grupo 118">
      <path id="Caminho_389" data-name="Caminho 389" d="M227.334,230.4a5.467,5.467,0,1,0,5.467,5.467A5.472,5.472,0,0,0,227.334,230.4Zm0,8.2a2.733,2.733,0,1,1,2.733-2.733A2.736,2.736,0,0,1,227.334,238.6Z" transform="translate(-221.867 -230.4)" fill="#abd9d6"/>
    </g>
  </g>
  <g id="Grupo_121" data-name="Grupo 121" transform="translate(27.333 31.434)">
    <g id="Grupo_120" data-name="Grupo 120">
      <path id="Caminho_390" data-name="Caminho 390" d="M181.929,203.618l-9.057-7.059a1.367,1.367,0,0,0-1.681,2.157l9.057,7.059a1.367,1.367,0,1,0,1.681-2.157Z" transform="translate(-170.664 -196.272)" fill="#abd9d6"/>
    </g>
  </g>
  <g id="Grupo_123" data-name="Grupo 123" transform="translate(50.567 35.533)">
    <g id="Grupo_122" data-name="Grupo 122">
      <path id="Caminho_391" data-name="Caminho 391" d="M330.766,221.867A15.033,15.033,0,1,0,345.8,236.9,15.051,15.051,0,0,0,330.766,221.867Zm0,27.333a12.3,12.3,0,1,1,12.3-12.3A12.313,12.313,0,0,1,330.766,249.2Z" transform="translate(-315.733 -221.867)" fill="#abd9d6"/>
    </g>
  </g>
  <g id="Grupo_125" data-name="Grupo 125" transform="translate(60.133 41)">
    <g id="Grupo_124" data-name="Grupo 124">
      <path id="Caminho_392" data-name="Caminho 392" d="M380.934,256a5.467,5.467,0,1,0,5.467,5.467A5.472,5.472,0,0,0,380.934,256Zm0,8.2a2.733,2.733,0,1,1,2.733-2.733A2.736,2.736,0,0,1,380.934,264.2Z" transform="translate(-375.467 -256)" fill="#abd9d6"/>
    </g>
  </g>
  <g id="Grupo_127" data-name="Grupo 127" transform="translate(57.4 54.667)">
    <g id="Grupo_126" data-name="Grupo 126">
      <path id="Caminho_393" data-name="Caminho 393" d="M370.565,341.333h-7.929a4.184,4.184,0,0,0-4.235,4.12v3.6a1.368,1.368,0,0,0,.682,1.184,14.957,14.957,0,0,0,15.036,0,1.365,1.365,0,0,0,.682-1.182v-3.6A4.184,4.184,0,0,0,370.565,341.333Zm1.5,6.909a12.392,12.392,0,0,1-10.933,0v-2.787a1.45,1.45,0,0,1,1.5-1.389h7.929a1.45,1.45,0,0,1,1.5,1.389v2.787Z" transform="translate(-358.4 -341.333)" fill="#abd9d6"/>
    </g>
  </g>
  <g id="Grupo_129" data-name="Grupo 129" transform="translate(17.767 51.933)">
    <g id="Grupo_128" data-name="Grupo 128">
      <path id="Caminho_394" data-name="Caminho 394" d="M125.966,324.267A15.033,15.033,0,1,0,141,339.3,15.051,15.051,0,0,0,125.966,324.267Zm0,27.333a12.3,12.3,0,1,1,12.3-12.3A12.313,12.313,0,0,1,125.966,351.6Z" transform="translate(-110.933 -324.267)" fill="#abd9d6"/>
    </g>
  </g>
  <g id="Grupo_131" data-name="Grupo 131" transform="translate(27.333 57.4)">
    <g id="Grupo_130" data-name="Grupo 130">
      <path id="Caminho_395" data-name="Caminho 395" d="M176.134,358.4a5.467,5.467,0,1,0,5.467,5.467A5.472,5.472,0,0,0,176.134,358.4Zm0,8.2a2.733,2.733,0,1,1,2.733-2.733A2.736,2.736,0,0,1,176.134,366.6Z" transform="translate(-170.667 -358.4)" fill="#abd9d6"/>
    </g>
  </g>
  <g id="Grupo_133" data-name="Grupo 133" transform="translate(24.6 71.067)">
    <g id="Grupo_132" data-name="Grupo 132">
      <path id="Caminho_396" data-name="Caminho 396" d="M165.765,443.733h-7.929a4.184,4.184,0,0,0-4.235,4.121v3.6a1.368,1.368,0,0,0,.682,1.184,14.957,14.957,0,0,0,15.036,0,1.365,1.365,0,0,0,.682-1.182v-3.6A4.184,4.184,0,0,0,165.765,443.733Zm1.5,6.909a12.392,12.392,0,0,1-10.933,0v-2.787a1.45,1.45,0,0,1,1.5-1.389h7.929a1.45,1.45,0,0,1,1.5,1.389v2.787Z" transform="translate(-153.6 -443.733)" fill="#abd9d6"/>
    </g>
  </g>
  <g id="Grupo_135" data-name="Grupo 135" transform="translate(0 17.767)">
    <g id="Grupo_134" data-name="Grupo 134">
      <path id="Caminho_397" data-name="Caminho 397" d="M15.033,110.933a15.033,15.033,0,1,0,15.033,15.033A15.051,15.051,0,0,0,15.033,110.933Zm0,27.333a12.3,12.3,0,1,1,12.3-12.3A12.313,12.313,0,0,1,15.033,138.266Z" transform="translate(0 -110.933)" fill="#abd9d6"/>
    </g>
  </g>
  <g id="Grupo_137" data-name="Grupo 137" transform="translate(9.567 23.233)">
    <g id="Grupo_136" data-name="Grupo 136">
      <path id="Caminho_398" data-name="Caminho 398" d="M65.2,145.067a5.467,5.467,0,1,0,5.467,5.467A5.472,5.472,0,0,0,65.2,145.067Zm0,8.2a2.733,2.733,0,1,1,2.733-2.733A2.736,2.736,0,0,1,65.2,153.267Z" transform="translate(-59.734 -145.067)" fill="#abd9d6"/>
    </g>
  </g>
  <g id="Grupo_139" data-name="Grupo 139" transform="translate(6.833 36.9)">
    <g id="Grupo_138" data-name="Grupo 138">
      <path id="Caminho_399" data-name="Caminho 399" d="M54.832,230.4H46.9a4.184,4.184,0,0,0-4.235,4.121v3.6a1.368,1.368,0,0,0,.682,1.184,14.957,14.957,0,0,0,15.036,0,1.365,1.365,0,0,0,.682-1.182v-3.6A4.184,4.184,0,0,0,54.832,230.4Zm1.5,6.909a12.392,12.392,0,0,1-10.933,0v-2.787a1.45,1.45,0,0,1,1.5-1.389h7.929a1.45,1.45,0,0,1,1.5,1.389v2.787Z" transform="translate(-42.667 -230.4)" fill="#abd9d6"/>
    </g>
  </g>
  <g id="Grupo_141" data-name="Grupo 141" transform="translate(32.8)">
    <g id="Grupo_140" data-name="Grupo 140">
      <path id="Caminho_400" data-name="Caminho 400" d="M219.833,0a15.033,15.033,0,1,0,15.033,15.033A15.051,15.051,0,0,0,219.833,0Zm0,27.333a12.3,12.3,0,1,1,12.3-12.3A12.313,12.313,0,0,1,219.833,27.333Z" transform="translate(-204.8)" fill="#abd9d6"/>
    </g>
  </g>
  <g id="Grupo_143" data-name="Grupo 143" transform="translate(42.367 5.467)">
    <g id="Grupo_142" data-name="Grupo 142">
      <path id="Caminho_401" data-name="Caminho 401" d="M270,34.133a5.467,5.467,0,1,0,5.467,5.467A5.472,5.472,0,0,0,270,34.133Zm0,8.2a2.733,2.733,0,1,1,2.733-2.733A2.736,2.736,0,0,1,270,42.333Z" transform="translate(-264.534 -34.133)" fill="#abd9d6"/>
    </g>
  </g>
  <g id="Grupo_145" data-name="Grupo 145" transform="translate(39.633 19.133)">
    <g id="Grupo_144" data-name="Grupo 144">
      <path id="Caminho_402" data-name="Caminho 402" d="M259.632,119.467H251.7a4.184,4.184,0,0,0-4.235,4.12v3.6a1.368,1.368,0,0,0,.682,1.184,14.957,14.957,0,0,0,15.036,0,1.365,1.365,0,0,0,.682-1.182v-3.6A4.184,4.184,0,0,0,259.632,119.467Zm1.5,6.908a12.392,12.392,0,0,1-10.933,0v-2.787a1.45,1.45,0,0,1,1.5-1.389h7.929a1.45,1.45,0,0,1,1.5,1.389v2.787Z" transform="translate(-247.467 -119.467)" fill="#abd9d6"/>
    </g>
  </g>
  <g id="Grupo_147" data-name="Grupo 147" transform="translate(23.33 13.667)">
    <g id="Grupo_146" data-name="Grupo 146">
      <path id="Caminho_403" data-name="Caminho 403" d="M157.548,85.81a1.369,1.369,0,0,0-1.927-.149l-9.471,8.1a1.366,1.366,0,1,0,1.777,2.076l9.471-8.1A1.366,1.366,0,0,0,157.548,85.81Z" transform="translate(-145.671 -85.333)" fill="#abd9d6"/>
    </g>
  </g>
  <g id="Grupo_149" data-name="Grupo 149" transform="translate(54.667 24.602)">
    <g id="Grupo_148" data-name="Grupo 148">
      <path id="Caminho_404" data-name="Caminho 404" d="M351.993,165.09l-8.2-10.933a1.366,1.366,0,0,0-2.187,1.639l8.2,10.933a1.366,1.366,0,0,0,2.187-1.639Z" transform="translate(-341.333 -153.61)" fill="#abd9d6"/>
    </g>
  </g>
  <g id="Grupo_151" data-name="Grupo 151" transform="translate(44.016 54.54)">
    <g id="Grupo_150" data-name="Grupo 150">
      <path id="Caminho_405" data-name="Caminho 405" d="M284.927,341.087a1.367,1.367,0,0,0-1.913-.273l-7.634,5.725a1.366,1.366,0,0,0,1.64,2.185L284.654,343A1.365,1.365,0,0,0,284.927,341.087Z" transform="translate(-274.833 -340.54)" fill="#abd9d6"/>
    </g>
  </g>
  <g id="Grupo_153" data-name="Grupo 153" transform="translate(8.2 65.6)">
    <g id="Grupo_152" data-name="Grupo 152">
      <path id="Caminho_406" data-name="Caminho 406" d="M62.133,409.6H52.567a1.367,1.367,0,1,0,0,2.733h9.567a1.367,1.367,0,0,0,0-2.733Z" transform="translate(-51.2 -409.6)" fill="#abd9d6"/>
    </g>
  </g>
  <g id="Grupo_155" data-name="Grupo 155" transform="translate(9.567)">
    <g id="Grupo_154" data-name="Grupo 154">
      <path id="Caminho_407" data-name="Caminho 407" d="M65.2,0a5.467,5.467,0,1,0,5.466,5.467A5.472,5.472,0,0,0,65.2,0Zm0,8.2a2.733,2.733,0,1,1,2.733-2.733A2.736,2.736,0,0,1,65.2,8.2Z" transform="translate(-59.733)" fill="#abd9d6"/>
    </g>
  </g>
  <g id="Grupo_157" data-name="Grupo 157" transform="translate(13.667 8.2)">
    <g id="Grupo_156" data-name="Grupo 156">
      <path id="Caminho_408" data-name="Caminho 408" d="M86.7,51.2a1.366,1.366,0,0,0-1.367,1.367v9.567a1.367,1.367,0,0,0,2.733,0V52.567A1.366,1.366,0,0,0,86.7,51.2Z" transform="translate(-85.334 -51.2)" fill="#abd9d6"/>
    </g>
  </g>
</svg>
