<svg xmlns="http://www.w3.org/2000/svg" width="77.845" height="77.844" viewBox="0 0 77.845 77.844">
  <g id="heart" transform="translate(0 -0.002)">
    <path id="Caminho_373" data-name="Caminho 373" d="M.928,12.013l10.9,2.07a4.8,4.8,0,0,0,3.207-.509L33.347,3.5a9.854,9.854,0,0,1,4.737-1.217H53.3a.331.331,0,0,1,.33.33,2.525,2.525,0,0,1-2.337,2.51l-13.025.93a3.583,3.583,0,0,0-1.73.592l-3.12,2.08a1.14,1.14,0,0,0,1.265,1.9l3.12-2.08a1.3,1.3,0,0,1,.627-.215L51.452,7.4a4.814,4.814,0,0,0,4.455-4.784A2.614,2.614,0,0,0,53.3,0H38.083a12.14,12.14,0,0,0-5.836,1.5L13.931,11.575a2.522,2.522,0,0,1-1.682.267l-10.9-2.07a1.14,1.14,0,1,0-.426,2.24Z" fill="#abd9d6"/>
    <path id="Caminho_374" data-name="Caminho 374" d="M37.814,91.514A3.707,3.707,0,0,0,40.063,88.1a3.67,3.67,0,0,0-4.5-3.576L22.823,87.468a1.14,1.14,0,0,0,.513,2.222L36.081,86.75a1.389,1.389,0,0,1,1.7,1.354,1.429,1.429,0,0,1-.867,1.315L26.5,93.883a19.605,19.605,0,0,1-10,1.449L1.275,93.541a1.14,1.14,0,1,0-.267,2.265L16.231,97.6A21.883,21.883,0,0,0,27.4,95.979Z" transform="translate(-0.001 -71.593)" fill="#abd9d6"/>
    <path id="Caminho_375" data-name="Caminho 375" d="M199.27,420.989l-10.9-2.07a4.807,4.807,0,0,0-3.207.509L166.851,429.5a9.854,9.854,0,0,1-4.736,1.217H146.9a.331.331,0,0,1-.33-.33,2.525,2.525,0,0,1,2.337-2.51l13.025-.93a3.583,3.583,0,0,0,1.73-.592l3.12-2.08a1.14,1.14,0,1,0-1.265-1.9l-3.12,2.08a1.3,1.3,0,0,1-.627.215l-13.025.93a4.814,4.814,0,0,0-4.455,4.784A2.614,2.614,0,0,0,146.9,433h15.212a12.14,12.14,0,0,0,5.836-1.5l18.317-10.074a2.519,2.519,0,0,1,1.682-.267l10.9,2.07a1.14,1.14,0,0,0,.426-2.24Z" transform="translate(-122.353 -355.154)" fill="#abd9d6"/>
    <path id="Caminho_376" data-name="Caminho 376" d="M261.169,341.768l-10.418,4.465a3.707,3.707,0,0,0-2.249,3.411,3.672,3.672,0,0,0,3.663,3.671,3.706,3.706,0,0,0,.832-.1l12.746-2.941a1.14,1.14,0,1,0-.513-2.222L252.485,351a1.389,1.389,0,0,1-1.7-1.354,1.429,1.429,0,0,1,.867-1.315l10.418-4.465a19.607,19.607,0,0,1,10-1.449l15.223,1.791a1.14,1.14,0,0,0,.267-2.265l-15.223-1.791a21.89,21.89,0,0,0-11.165,1.618Z" transform="translate(-210.72 -288.306)" fill="#abd9d6"/>
    <path id="Caminho_377" data-name="Caminho 377" d="M148.119,178.549a2.323,2.323,0,0,0,1.576.618,2.356,2.356,0,0,0,.425-.039,45.123,45.123,0,0,0,11.053-3.605c6.175-2.988,10.332-7.01,12.355-11.952a12.511,12.511,0,0,0-.133-9.835,10.986,10.986,0,0,0-6.423-5.947,11.325,11.325,0,0,0-9.111.674,11.378,11.378,0,0,0-2.155-2.706,1.14,1.14,0,1,0-1.549,1.674,9.121,9.121,0,0,1,2.19,3.1,1.14,1.14,0,0,0,1.689.49,9.081,9.081,0,0,1,8.184-1.075,8.727,8.727,0,0,1,5.1,4.731,10.222,10.222,0,0,1,.1,8.035c-4.3,10.515-18.837,13.655-21.706,14.178a.052.052,0,0,1-.051-.017c-2.089-1.915-12.429-12.013-10.975-22.953l.105-.538a1.14,1.14,0,1,0-2.238-.439l-.112.572c0,.022-.008.044-.011.067-.694,5.136.781,10.607,4.383,16.26A45.614,45.614,0,0,0,148.119,178.549Z" transform="translate(-115.545 -123.336)" fill="#abd9d6"/>
  </g>
</svg>
